<svg width="24" height="24" viewBox="0 0 24 24" fill="none" xmlns="http://www.w3.org/2000/svg">
<path d="M5.66244 14.7596C4.56444 14.7596 3.6709 13.866 3.6709 12.768C3.6709 12.592 3.74084 12.4231 3.86533 12.2986C3.98983 12.1741 4.15868 12.1042 4.33475 12.1042C4.51081 12.1042 4.67966 12.1741 4.80416 12.2986C4.92865 12.4231 4.99859 12.592 4.99859 12.768C4.99859 12.9441 5.06853 13.1129 5.19303 13.2374C5.31752 13.3619 5.48638 13.4319 5.66244 13.4319C5.8385 13.4319 6.00735 13.3619 6.13185 13.2374C6.25635 13.1129 6.32629 12.9441 6.32629 12.768V8.78494C6.32629 8.60888 6.39623 8.44003 6.52072 8.31553C6.64522 8.19103 6.81407 8.12109 6.99013 8.12109C7.1662 8.12109 7.33505 8.19103 7.45954 8.31553C7.58404 8.44003 7.65398 8.60888 7.65398 8.78494V12.768C7.65398 13.866 6.76044 14.7596 5.66244 14.7596ZM10.9732 14.7596C9.87521 14.7596 8.98167 13.866 8.98167 12.768V10.1126C8.98167 9.01463 9.87521 8.12109 10.9732 8.12109C12.0712 8.12109 12.9648 9.01463 12.9648 10.1126V12.768C12.9648 13.866 12.0712 14.7596 10.9732 14.7596ZM10.9732 9.44879C10.886 9.44879 10.7997 9.46596 10.7192 9.49932C10.6386 9.53268 10.5654 9.58158 10.5038 9.64322C10.4422 9.70487 10.3933 9.77805 10.3599 9.85859C10.3265 9.93913 10.3094 10.0255 10.3094 10.1126V12.768C10.3094 12.9441 10.3793 13.1129 10.5038 13.2374C10.6283 13.3619 10.7972 13.4319 10.9732 13.4319C11.1493 13.4319 11.3181 13.3619 11.4426 13.2374C11.5671 13.1129 11.6371 12.9441 11.6371 12.768V10.1126C11.6371 10.0255 11.6199 9.93913 11.5865 9.85859C11.5532 9.77805 11.5043 9.70487 11.4426 9.64322C11.381 9.58158 11.3078 9.53268 11.2273 9.49932C11.1467 9.46596 11.0604 9.44879 10.9732 9.44879ZM16.284 14.7596H14.9563C14.8691 14.7596 14.7828 14.7424 14.7023 14.709C14.6217 14.6757 14.5485 14.6268 14.4869 14.5651C14.4252 14.5035 14.3763 14.4303 14.343 14.3498C14.3096 14.2692 14.2924 14.1829 14.2924 14.0957V8.78494C14.2924 8.69776 14.3096 8.61144 14.343 8.5309C14.3763 8.45036 14.4252 8.37717 14.4869 8.31553C14.5485 8.25389 14.6217 8.20499 14.7023 8.17163C14.7828 8.13827 14.8691 8.12109 14.9563 8.12109H16.284C16.6678 8.1225 17.0431 8.23464 17.3648 8.44408C17.6864 8.65351 17.9408 8.95133 18.0974 9.30178C18.254 9.65223 18.3061 10.0404 18.2475 10.4198C18.1889 10.7991 18.0221 11.1535 17.767 11.4403C18.0221 11.7272 18.1889 12.0816 18.2475 12.4609C18.3061 12.8402 18.254 13.2284 18.0974 13.5789C17.9408 13.9293 17.6864 14.2271 17.3648 14.4366C17.0431 14.646 16.6678 14.7582 16.284 14.7596ZM15.6201 13.4319H16.284C16.46 13.4319 16.6289 13.3619 16.7534 13.2374C16.8779 13.1129 16.9478 12.9441 16.9478 12.768C16.9478 12.592 16.8779 12.4231 16.7534 12.2986C16.6289 12.1741 16.46 12.1042 16.284 12.1042H15.6201V13.4319ZM15.6201 10.7765H16.284C16.46 10.7765 16.6289 10.7065 16.7534 10.582C16.8779 10.4575 16.9478 10.2887 16.9478 10.1126C16.9478 9.93657 16.8779 9.76772 16.7534 9.64322C16.6289 9.51873 16.46 9.44879 16.284 9.44879H15.6201V10.7765Z" fill="white"/>
<path d="M11.5 21C16.7467 21 21 16.7467 21 11.5C21 6.25329 16.7467 2 11.5 2C6.25329 2 2 6.25329 2 11.5C2 16.7467 6.25329 21 11.5 21Z" stroke="white" stroke-width="1.5" stroke-linecap="round" stroke-linejoin="round"/>
<path d="M22 22L18.5 18.5" stroke="white" stroke-width="1.5" stroke-linecap="round" stroke-linejoin="round"/>
</svg>
