<svg width="24" height="24" viewBox="0 0 24 24" fill="none" xmlns="http://www.w3.org/2000/svg">
<path d="M15.7432 3.41357H18.0665C18.9219 3.41357 19.6154 4.10703 19.6154 4.96244V20.4511C19.6154 21.3065 18.9219 22 18.0665 22H5.67558C4.82016 22 4.12671 21.3065 4.12671 20.4511V4.96244C4.12671 4.10703 4.82016 3.41357 5.67558 3.41357H7.99888" stroke="white" stroke-width="1.54887" stroke-linecap="round" stroke-linejoin="round"/>
<path d="M15.141 1.86475H8.60136C8.2687 1.86475 7.99902 2.13442 7.99902 2.46708V5.13458C7.99902 5.46724 8.2687 5.73691 8.60136 5.73691H15.141C15.4737 5.73691 15.7434 5.46724 15.7434 5.13458V2.46708C15.7434 2.13442 15.4737 1.86475 15.141 1.86475Z" stroke="white" stroke-width="1.54887" stroke-linecap="round" stroke-linejoin="round"/>
<path d="M14.7206 9.01575C14.8351 8.9012 14.9905 8.83684 15.1525 8.83684C15.3145 8.83684 15.4699 8.9012 15.5844 9.01575C15.699 9.13031 15.7633 9.28567 15.7633 9.44768V16.4286C15.7633 16.5906 15.699 16.746 15.5844 16.8605C15.4699 16.9751 15.3145 17.0394 15.1525 17.0394C14.9905 17.0394 14.8351 16.9751 14.7206 16.8605C14.606 16.746 14.5417 16.5906 14.5417 16.4286V9.44768C14.5417 9.28567 14.606 9.13031 14.7206 9.01575Z" fill="white" stroke="white" stroke-width="0.0193915"/>
<path d="M10.6902 9.18886C10.4624 8.69306 9.7513 8.71106 9.54963 9.21865L6.97444 15.6907C6.91354 15.8437 6.91591 16.0146 6.98102 16.1658C7.04613 16.3171 7.16865 16.4362 7.32162 16.4971C7.47459 16.558 7.64549 16.5556 7.79671 16.4905C7.94794 16.4254 8.0671 16.3029 8.128 16.1499L8.76031 14.5614C8.77148 14.562 8.78141 14.5676 8.79258 14.5676H11.7953L12.5356 16.1791C12.6043 16.3286 12.7296 16.4447 12.8839 16.5019C13.0382 16.559 13.2089 16.5525 13.3584 16.4838C13.5079 16.4151 13.624 16.2898 13.6812 16.1355C13.7383 15.9812 13.7318 15.8105 13.6631 15.661L10.6902 9.18886ZM9.25115 13.3259L10.1677 11.0238L11.225 13.3259H9.25115Z" fill="white"/>
</svg>
