<svg width="24" height="24" viewBox="0 0 24 24" fill="none" xmlns="http://www.w3.org/2000/svg">
<path d="M9.01282 22.9018L9.00995 22.9018C8.87983 22.9012 8.75211 22.8668 8.63921 22.8022C8.52631 22.7375 8.43208 22.6447 8.36569 22.5328C8.29931 22.4209 8.26304 22.2937 8.26041 22.1636C8.25777 22.0335 8.28888 21.905 8.35068 21.7905L8.35073 21.7904L8.25607 21.7394L8.35074 21.7904L8.35076 21.7903L8.35081 21.7902L8.351 21.7899L8.35171 21.7886L8.35438 21.7836L8.3646 21.7643C8.37349 21.7475 8.38642 21.7228 8.40273 21.6912C8.43533 21.628 8.48144 21.5372 8.53566 21.426C8.644 21.2039 8.78509 20.9001 8.91552 20.574C9.13403 20.0277 9.20088 19.7685 9.25452 19.5604C9.26495 19.5199 9.27488 19.4814 9.28533 19.4431L9.32237 19.3073H9.1816H9.03093H9.02079L9.01082 19.3092C8.97916 19.3152 8.94725 19.3214 8.91509 19.3275C8.48554 19.4099 8.01062 19.501 7.4812 19.501C6.91624 19.501 6.0979 19.3541 5.34364 18.8722C4.60858 18.4026 4.24957 17.603 3.97066 16.187L3.9704 16.1857C3.77847 15.2687 3.71439 14.3077 3.71439 13.7325V13.6879L3.6829 13.6564C3.63374 13.6073 3.53847 13.5135 3.31057 13.3995C3.24617 13.3673 3.17086 13.3287 3.0893 13.2868C2.90365 13.1915 2.6856 13.0796 2.49 12.9893C2.48988 12.9892 2.48976 12.9892 2.48963 12.9891L1.76428 12.6478C1.75898 12.6445 1.75347 12.6411 1.74776 12.6375C1.55716 12.5193 1.14686 12.2648 1.10971 11.7446C1.09057 11.4767 1.1741 11.2654 1.35653 11.0298C1.50741 10.8349 1.71909 10.6315 1.9892 10.372C2.05471 10.3091 2.12366 10.2428 2.19601 10.1726C2.56072 9.82937 2.97462 9.43745 3.28091 9.06553C3.43675 8.8763 3.54302 8.70315 3.61072 8.57338C3.64455 8.50853 3.66895 8.45415 3.68518 8.41359C3.69325 8.39339 3.69956 8.37599 3.70404 8.362C3.70626 8.3551 3.70832 8.34812 3.70995 8.34153L3.71006 8.34112C3.71099 8.33738 3.71439 8.32377 3.71443 8.30841L3.71435 8.30551C3.6933 7.52651 3.86168 6.70147 4.18057 5.87221C4.53384 4.97956 5.05978 4.1654 5.72826 3.47638C6.80897 2.3959 8.76271 1.09775 12.0228 1.09775C14.3059 1.09775 16.2751 2.23706 17.657 4.44802L17.6576 4.44899C18.5895 5.905 18.9537 7.33862 19.0306 7.64123C19.0355 7.66032 19.0392 7.67491 19.0418 7.68472C19.0685 7.87201 19.0237 8.06258 18.9163 8.21848C18.8078 8.37606 18.6433 8.48642 18.4563 8.52717C18.2694 8.56792 18.0739 8.536 17.9096 8.4379C17.7471 8.34087 17.6272 8.1863 17.5735 8.00498L17.573 8.0023L17.5695 7.98573C17.5667 7.97288 17.5626 7.95518 17.5572 7.93309C17.5463 7.88881 17.5299 7.82587 17.5076 7.74703C17.4629 7.58935 17.3941 7.36751 17.2976 7.10378C17.1047 6.57676 16.8001 5.88025 16.3533 5.19362C15.2609 3.48968 13.7873 2.60464 12.0228 2.60464C9.86953 2.60464 8.07412 3.2793 6.84423 4.55312C5.61751 5.82365 5.24224 7.29415 5.26435 8.28928C5.2743 8.73671 5.02885 9.25035 4.64455 9.77876C4.26287 10.3036 3.75723 10.8256 3.27431 11.2871L3.27429 11.2871L3.27256 11.2888L3.07884 11.4825L2.8953 11.6661H3.15462C3.55314 11.835 3.96934 12.0443 4.3432 12.2934C4.92774 12.6902 5.22128 13.156 5.22128 13.6679C5.22128 14.233 5.26475 15.0156 5.46034 15.9285C5.60158 16.6129 5.76041 17.0269 5.89313 17.2754C6.01871 17.5105 6.12524 17.6054 6.17825 17.635C7.0433 18.1876 7.86847 18.0181 8.68797 17.8498C8.70122 17.8471 8.71447 17.8444 8.72771 17.8417L9.37014 17.7346C9.37034 17.7346 9.37053 17.7345 9.37073 17.7345C9.89345 17.6543 10.3259 17.8344 10.6017 18.2087C10.7313 18.3845 10.8173 18.7158 10.8014 19.1879C10.7858 19.6555 10.6705 20.2464 10.4157 20.9262C10.2083 21.4583 9.97282 21.9791 9.71031 22.4864L9.70975 22.4875C9.64518 22.6158 9.54526 22.723 9.42178 22.7964C9.2983 22.8698 9.15641 22.9064 9.01282 22.9018Z" fill="white" stroke="white" stroke-width="0.215035"/>
<path d="M22.1391 12.5702H18.6522C18.4251 12.5669 18.2085 12.4741 18.0495 12.3119L15.0577 9.34155H10.9466C10.7183 9.34155 10.4993 9.25084 10.3378 9.08938C10.1763 8.92792 10.0856 8.70893 10.0856 8.48059C10.0856 8.25225 10.1763 8.03326 10.3378 7.8718C10.4993 7.71034 10.7183 7.61963 10.9466 7.61963H15.4236C15.6507 7.62286 15.8673 7.7157 16.0263 7.87792L19.0181 10.8482H22.1391C22.3674 10.8482 22.5864 10.9389 22.7479 11.1004C22.9094 11.2619 23.0001 11.4809 23.0001 11.7092C23.0001 11.9375 22.9094 12.1565 22.7479 12.318C22.5864 12.4795 22.3674 12.5702 22.1391 12.5702ZM15.7249 17.5207H11.9367C11.7084 17.5207 11.4894 17.43 11.3279 17.2685C11.1664 17.1071 11.0757 16.8881 11.0757 16.6597C11.0757 16.4314 11.1664 16.2124 11.3279 16.0509C11.4894 15.8895 11.7084 15.7988 11.9367 15.7988H15.359L17.1455 14.0123C17.3045 13.8501 17.5211 13.7572 17.7482 13.754H20.9338C21.1621 13.754 21.3811 13.8447 21.5425 14.0062C21.704 14.1676 21.7947 14.3866 21.7947 14.6149C21.7947 14.8433 21.704 15.0623 21.5425 15.2237C21.3811 15.3852 21.1621 15.4759 20.9338 15.4759H18.1356L16.3491 17.2624C16.2679 17.3453 16.1707 17.4109 16.0634 17.4553C15.9562 17.4997 15.841 17.5219 15.7249 17.5207ZM13.8308 13.4742H9.65515C9.42681 13.4742 9.20782 13.3835 9.04636 13.222C8.8849 13.0605 8.79419 12.8415 8.79419 12.6132C8.79419 12.3849 8.8849 12.1659 9.04636 12.0044C9.20782 11.843 9.42681 11.7522 9.65515 11.7522H13.8308C14.0592 11.7522 14.2781 11.843 14.4396 12.0044C14.6011 12.1659 14.6918 12.3849 14.6918 12.6132C14.6918 12.8415 14.6011 13.0605 14.4396 13.222C14.2781 13.3835 14.0592 13.4742 13.8308 13.4742Z" fill="white"/>
</svg>
