<svg width="18" height="18" viewBox="0 0 18 18" fill="none" xmlns="http://www.w3.org/2000/svg">
<path d="M14.2493 1.81139C14.2611 1.8079 14.2737 1.8043 14.2872 1.80065C14.4008 1.76987 14.5649 1.7378 14.7574 1.73514C15.1275 1.73004 15.6189 1.83044 16.1028 2.31437C16.5868 2.7983 16.6872 3.28975 16.6821 3.65981C16.6794 3.85231 16.6473 4.01639 16.6165 4.13004C16.6129 4.1435 16.6093 4.15615 16.6058 4.16793L8.20923 12.5645L5.84726 12.8479C5.6864 12.8673 5.54995 12.7308 5.56925 12.5699L5.85269 10.208L14.2493 1.81139ZM16.5687 4.27628L16.5689 4.27573C16.5683 4.27717 16.5682 4.27736 16.5687 4.27628Z" stroke="#414045" stroke-width="1.5" stroke-linecap="round"/>
<path d="M12 3.75L14.7409 6.68932" stroke="#414045" stroke-width="1.5"/>
<path d="M9 1.5H2.84615C2.10269 1.5 1.5 2.10269 1.5 2.84615V15.1538C1.5 15.8973 2.10269 16.5 2.84615 16.5H15.1538C15.8973 16.5 16.5 15.8973 16.5 15.1538V9" stroke="#414045" stroke-width="1.5" stroke-linecap="round" stroke-linejoin="round"/>
</svg>
