<svg width="19" height="19" viewBox="0 0 19 19" fill="none" xmlns="http://www.w3.org/2000/svg">
<g id="Group 1">
<path id="Vector" d="M18.155 7.37138H17.4167V7.33333H9.16667V11H14.3472C13.5914 13.1345 11.5605 14.6667 9.16667 14.6667C6.12929 14.6667 3.66667 12.204 3.66667 9.16667C3.66667 6.12929 6.12929 3.66667 9.16667 3.66667C10.5687 3.66667 11.8443 4.19558 12.8155 5.05954L15.4083 2.46675C13.7711 0.940958 11.5812 0 9.16667 0C4.10437 0 0 4.10437 0 9.16667C0 14.229 4.10437 18.3333 9.16667 18.3333C14.229 18.3333 18.3333 14.229 18.3333 9.16667C18.3333 8.55204 18.2701 7.95208 18.155 7.37138Z" fill="#FFC107"/>
<path id="Vector_2" d="M1.05695 4.90004L4.06865 7.10875C4.88357 5.09117 6.85715 3.66667 9.1667 3.66667C10.5687 3.66667 11.8443 4.19558 12.8155 5.05954L15.4083 2.46675C13.7711 0.940958 11.5812 0 9.1667 0C5.64578 0 2.59236 1.98779 1.05695 4.90004Z" fill="#FF3D00"/>
<path id="Vector_3" d="M9.16667 18.3334C11.5344 18.3334 13.6858 17.4272 15.3125 15.9537L12.4754 13.5529C11.555 14.2501 10.411 14.6667 9.16667 14.6667C6.78242 14.6667 4.75796 13.1464 3.99529 11.0248L1.00604 13.3279C2.52313 16.2965 5.60404 18.3334 9.16667 18.3334Z" fill="#4CAF50"/>
<path id="Vector_4" d="M18.1551 7.37142H17.4167V7.33337H9.16669V11H14.3472C13.9842 12.0253 13.3247 12.9095 12.474 13.5534L12.4754 13.5525L15.3125 15.9532C15.1117 16.1357 18.3334 13.75 18.3334 9.16671C18.3334 8.55208 18.2701 7.95212 18.1551 7.37142Z" fill="#1976D2"/>
</g>
</svg>
