<svg width="253" height="147" viewBox="0 0 253 147" fill="none" xmlns="http://www.w3.org/2000/svg">
<path d="M250.587 4.43935C249.589 4.43935 248.784 3.63378 248.784 2.63642C248.784 1.63906 249.589 0.833496 250.587 0.833496C251.584 0.833496 252.39 1.63906 252.39 2.63642C252.39 3.63378 251.584 4.43935 250.587 4.43935Z" fill="#00ABF7"/>
<path d="M250.587 39.9798C249.589 39.9798 248.784 39.1742 248.784 38.1769C248.784 37.1795 249.589 36.374 250.587 36.374C251.584 36.374 252.39 37.1795 252.39 38.1769C252.39 39.1742 251.584 39.9798 250.587 39.9798Z" fill="#00ABF7"/>
<path d="M250.587 75.5203C249.589 75.5203 248.784 74.7148 248.784 73.7174C248.784 72.7201 249.589 71.9146 250.587 71.9146C251.584 71.9146 252.39 72.7201 252.39 73.7174C252.39 74.7148 251.584 75.5203 250.587 75.5203Z" fill="#00ABF7"/>
<path d="M250.587 111.061C249.589 111.061 248.784 110.255 248.784 109.258C248.784 108.261 249.589 107.455 250.587 107.455C251.584 107.455 252.39 108.261 252.39 109.258C252.39 110.255 251.584 111.061 250.587 111.061Z" fill="#00ABF7"/>
<path d="M250.587 146.601C249.589 146.601 248.784 145.796 248.784 144.799C248.784 143.801 249.589 142.996 250.587 142.996C251.584 142.996 252.39 143.801 252.39 144.799C252.39 145.796 251.584 146.601 250.587 146.601Z" fill="#00ABF7"/>
<path d="M215.046 4.43935C216.042 4.43935 216.849 3.63215 216.849 2.63642C216.849 1.6407 216.042 0.833496 215.046 0.833496C214.05 0.833496 213.243 1.6407 213.243 2.63642C213.243 3.63215 214.05 4.43935 215.046 4.43935Z" fill="#00ABF7"/>
<path d="M215.046 39.9798C216.042 39.9798 216.849 39.1726 216.849 38.1769C216.849 37.1812 216.042 36.374 215.046 36.374C214.05 36.374 213.243 37.1812 213.243 38.1769C213.243 39.1726 214.05 39.9798 215.046 39.9798Z" fill="#00ABF7"/>
<path d="M215.046 75.5203C216.042 75.5203 216.849 74.7131 216.849 73.7174C216.849 72.7217 216.042 71.9146 215.046 71.9146C214.05 71.9146 213.243 72.7217 213.243 73.7174C213.243 74.7131 214.05 75.5203 215.046 75.5203Z" fill="#00ABF7"/>
<path d="M215.046 111.061C216.042 111.061 216.849 110.254 216.849 109.258C216.849 108.262 216.042 107.455 215.046 107.455C214.05 107.455 213.243 108.262 213.243 109.258C213.243 110.254 214.05 111.061 215.046 111.061Z" fill="#00ABF7"/>
<path d="M215.046 146.601C216.042 146.601 216.849 145.794 216.849 144.799C216.849 143.803 216.042 142.996 215.046 142.996C214.05 142.996 213.243 143.803 213.243 144.799C213.243 145.794 214.05 146.601 215.046 146.601Z" fill="#00ABF7"/>
<path d="M179.506 4.43935C178.508 4.43935 177.703 3.63378 177.703 2.63642C177.703 1.63906 178.508 0.833496 179.506 0.833496C180.503 0.833496 181.309 1.63906 181.309 2.63642C181.309 3.63378 180.503 4.43935 179.506 4.43935Z" fill="#00ABF7"/>
<path d="M179.506 39.9798C178.508 39.9798 177.703 39.1742 177.703 38.1769C177.703 37.1795 178.508 36.374 179.506 36.374C180.503 36.374 181.309 37.1795 181.309 38.1769C181.309 39.1742 180.503 39.9798 179.506 39.9798Z" fill="#00ABF7"/>
<path d="M179.506 75.5203C178.508 75.5203 177.703 74.7148 177.703 73.7174C177.703 72.7201 178.508 71.9146 179.506 71.9146C180.503 71.9146 181.309 72.7201 181.309 73.7174C181.309 74.7148 180.503 75.5203 179.506 75.5203Z" fill="#00ABF7"/>
<path d="M179.506 111.061C178.508 111.061 177.703 110.255 177.703 109.258C177.703 108.261 178.508 107.455 179.506 107.455C180.503 107.455 181.309 108.261 181.309 109.258C181.309 110.255 180.503 111.061 179.506 111.061Z" fill="#00ABF7"/>
<path d="M179.506 146.601C178.508 146.601 177.703 145.796 177.703 144.799C177.703 143.801 178.508 142.996 179.506 142.996C180.503 142.996 181.309 143.801 181.309 144.799C181.309 145.796 180.503 146.601 179.506 146.601Z" fill="#00ABF7"/>
<path d="M143.965 4.43935C144.961 4.43935 145.768 3.63215 145.768 2.63642C145.768 1.6407 144.961 0.833496 143.965 0.833496C142.969 0.833496 142.162 1.6407 142.162 2.63642C142.162 3.63215 142.969 4.43935 143.965 4.43935Z" fill="#00ABF7"/>
<path d="M143.965 39.9798C144.961 39.9798 145.768 39.1726 145.768 38.1769C145.768 37.1812 144.961 36.374 143.965 36.374C142.969 36.374 142.162 37.1812 142.162 38.1769C142.162 39.1726 142.969 39.9798 143.965 39.9798Z" fill="#00ABF7"/>
<path d="M143.965 75.5203C144.961 75.5203 145.768 74.7131 145.768 73.7174C145.768 72.7217 144.961 71.9146 143.965 71.9146C142.969 71.9146 142.162 72.7217 142.162 73.7174C142.162 74.7131 142.969 75.5203 143.965 75.5203Z" fill="#00ABF7"/>
<path d="M143.965 111.061C144.961 111.061 145.768 110.254 145.768 109.258C145.768 108.262 144.961 107.455 143.965 107.455C142.969 107.455 142.162 108.262 142.162 109.258C142.162 110.254 142.969 111.061 143.965 111.061Z" fill="#00ABF7"/>
<path d="M143.965 146.601C144.961 146.601 145.768 145.794 145.768 144.799C145.768 143.803 144.961 142.996 143.965 142.996C142.969 142.996 142.162 143.803 142.162 144.799C142.162 145.794 142.969 146.601 143.965 146.601Z" fill="#00ABF7"/>
<path d="M108.425 4.43935C107.427 4.43935 106.622 3.63378 106.622 2.63642C106.622 1.63906 107.427 0.833496 108.425 0.833496C109.422 0.833496 110.227 1.63906 110.227 2.63642C110.227 3.63378 109.422 4.43935 108.425 4.43935Z" fill="#00ABF7"/>
<path d="M108.425 39.9798C107.427 39.9798 106.622 39.1742 106.622 38.1769C106.622 37.1795 107.427 36.374 108.425 36.374C109.422 36.374 110.227 37.1795 110.227 38.1769C110.227 39.1742 109.422 39.9798 108.425 39.9798Z" fill="#00ABF7"/>
<path d="M108.425 75.5203C107.427 75.5203 106.622 74.7148 106.622 73.7174C106.622 72.7201 107.427 71.9146 108.425 71.9146C109.422 71.9146 110.227 72.7201 110.227 73.7174C110.227 74.7148 109.422 75.5203 108.425 75.5203Z" fill="#00ABF7"/>
<path d="M108.425 111.061C107.427 111.061 106.622 110.255 106.622 109.258C106.622 108.261 107.427 107.455 108.425 107.455C109.422 107.455 110.227 108.261 110.227 109.258C110.227 110.255 109.422 111.061 108.425 111.061Z" fill="#00ABF7"/>
<path d="M108.425 146.601C107.427 146.601 106.622 145.796 106.622 144.799C106.622 143.801 107.427 142.996 108.425 142.996C109.422 142.996 110.227 143.801 110.227 144.799C110.227 145.796 109.422 146.601 108.425 146.601Z" fill="#00ABF7"/>
<path d="M72.884 4.43935C71.8867 4.43935 71.0811 3.63378 71.0811 2.63642C71.0811 1.63906 71.8867 0.833496 72.884 0.833496C73.8814 0.833496 74.687 1.63906 74.687 2.63642C74.687 3.63378 73.8814 4.43935 72.884 4.43935Z" fill="#00ABF7"/>
<path d="M72.884 39.9798C71.8867 39.9798 71.0811 39.1742 71.0811 38.1769C71.0811 37.1795 71.8867 36.374 72.884 36.374C73.8814 36.374 74.687 37.1795 74.687 38.1769C74.687 39.1742 73.8814 39.9798 72.884 39.9798Z" fill="#00ABF7"/>
<path d="M72.884 75.5203C71.8867 75.5203 71.0811 74.7148 71.0811 73.7174C71.0811 72.7201 71.8867 71.9146 72.884 71.9146C73.8814 71.9146 74.687 72.7201 74.687 73.7174C74.687 74.7148 73.8814 75.5203 72.884 75.5203Z" fill="#00ABF7"/>
<path d="M72.884 111.061C71.8867 111.061 71.0811 110.255 71.0811 109.258C71.0811 108.261 71.8867 107.455 72.884 107.455C73.8814 107.455 74.687 108.261 74.687 109.258C74.687 110.255 73.8814 111.061 72.884 111.061Z" fill="#00ABF7"/>
<path d="M72.884 146.601C71.8867 146.601 71.0811 145.796 71.0811 144.799C71.0811 143.801 71.8867 142.996 72.884 142.996C73.8814 142.996 74.687 143.801 74.687 144.799C74.687 145.796 73.8814 146.601 72.884 146.601Z" fill="#00ABF7"/>
<path d="M37.3434 4.43935C36.346 4.43935 35.5405 3.63378 35.5405 2.63642C35.5405 1.63906 36.346 0.833496 37.3434 0.833496C38.3408 0.833496 39.1463 1.63906 39.1463 2.63642C39.1463 3.63378 38.3408 4.43935 37.3434 4.43935Z" fill="#00ABF7"/>
<path d="M37.3434 39.9798C36.346 39.9798 35.5405 39.1742 35.5405 38.1769C35.5405 37.1795 36.346 36.374 37.3434 36.374C38.3408 36.374 39.1463 37.1795 39.1463 38.1769C39.1463 39.1742 38.3408 39.9798 37.3434 39.9798Z" fill="#00ABF7"/>
<path d="M37.3434 75.5203C36.346 75.5203 35.5405 74.7148 35.5405 73.7174C35.5405 72.7201 36.346 71.9146 37.3434 71.9146C38.3408 71.9146 39.1463 72.7201 39.1463 73.7174C39.1463 74.7148 38.3408 75.5203 37.3434 75.5203Z" fill="#00ABF7"/>
<path d="M37.3434 111.061C36.346 111.061 35.5405 110.255 35.5405 109.258C35.5405 108.261 36.346 107.455 37.3434 107.455C38.3408 107.455 39.1463 108.261 39.1463 109.258C39.1463 110.255 38.3408 111.061 37.3434 111.061Z" fill="#00ABF7"/>
<path d="M37.3434 146.601C36.346 146.601 35.5405 145.796 35.5405 144.799C35.5405 143.801 36.346 142.996 37.3434 142.996C38.3408 142.996 39.1463 143.801 39.1463 144.799C39.1463 145.796 38.3408 146.601 37.3434 146.601Z" fill="#00ABF7"/>
<path d="M1.80292 4.43935C2.79865 4.43935 3.60585 3.63215 3.60585 2.63642C3.60585 1.6407 2.79865 0.833496 1.80292 0.833496C0.807199 0.833496 0 1.6407 0 2.63642C0 3.63215 0.807199 4.43935 1.80292 4.43935Z" fill="#00ABF7"/>
<path d="M1.80292 39.9798C2.79865 39.9798 3.60585 39.1726 3.60585 38.1769C3.60585 37.1812 2.79865 36.374 1.80292 36.374C0.807199 36.374 0 37.1812 0 38.1769C0 39.1726 0.807199 39.9798 1.80292 39.9798Z" fill="#00ABF7"/>
<path d="M1.80292 75.5203C2.79865 75.5203 3.60585 74.7131 3.60585 73.7174C3.60585 72.7217 2.79865 71.9146 1.80292 71.9146C0.807199 71.9146 0 72.7217 0 73.7174C0 74.7131 0.807199 75.5203 1.80292 75.5203Z" fill="#00ABF7"/>
<path d="M1.80292 111.061C2.79865 111.061 3.60585 110.254 3.60585 109.258C3.60585 108.262 2.79865 107.455 1.80292 107.455C0.807199 107.455 0 108.262 0 109.258C0 110.254 0.807199 111.061 1.80292 111.061Z" fill="#00ABF7"/>
<path d="M1.80292 146.601C2.79865 146.601 3.60585 145.794 3.60585 144.799C3.60585 143.803 2.79865 142.996 1.80292 142.996C0.807199 142.996 0 143.803 0 144.799C0 145.794 0.807199 146.601 1.80292 146.601Z" fill="#00ABF7"/>
</svg>
