<svg width="147" height="253" viewBox="0 0 147 253" fill="none" xmlns="http://www.w3.org/2000/svg">
<path d="M4.52284 1.80292C4.52284 2.80028 3.71716 3.60584 2.7198 3.60584C1.72244 3.60584 0.916992 2.80028 0.916992 1.80292C0.916992 0.805565 1.72244 0 2.7198 0C3.71716 0 4.52284 0.805565 4.52284 1.80292Z" fill="#00ABF7"/>
<path d="M38.2604 3.60584C39.2562 3.60584 40.0632 2.79865 40.0632 1.80292C40.0632 0.807199 39.2562 0 38.2604 0C37.2647 0 36.4574 0.807199 36.4574 1.80292C36.4574 2.79865 37.2647 3.60584 38.2604 3.60584Z" fill="#00ABF7"/>
<path d="M73.801 3.60584C74.7968 3.60584 75.6038 2.79865 75.6038 1.80292C75.6038 0.807199 74.7968 0 73.801 0C72.8053 0 71.998 0.807199 71.998 1.80292C71.998 2.79865 72.8053 3.60584 73.801 3.60584Z" fill="#00ABF7"/>
<path d="M109.341 3.60584C110.337 3.60584 111.144 2.79865 111.144 1.80292C111.144 0.807199 110.337 0 109.341 0C108.346 0 107.539 0.807199 107.539 1.80292C107.539 2.79865 108.346 3.60584 109.341 3.60584Z" fill="#00ABF7"/>
<path d="M144.882 3.60584C145.878 3.60584 146.685 2.79865 146.685 1.80292C146.685 0.807199 145.878 0 144.882 0C143.886 0 143.079 0.807199 143.079 1.80292C143.079 2.79865 143.886 3.60584 144.882 3.60584Z" fill="#00ABF7"/>
<path d="M4.52284 37.3434C4.52284 38.3408 3.71716 39.1464 2.7198 39.1464C1.72244 39.1464 0.916992 38.3408 0.916992 37.3434C0.916992 36.3461 1.72244 35.5405 2.7198 35.5405C3.71716 35.5405 4.52284 36.3461 4.52284 37.3434Z" fill="#00ABF7"/>
<path d="M38.2604 39.1464C39.2562 39.1464 40.0632 38.3392 40.0632 37.3434C40.0632 36.3477 39.2562 35.5405 38.2604 35.5405C37.2647 35.5405 36.4574 36.3477 36.4574 37.3434C36.4574 38.3392 37.2647 39.1464 38.2604 39.1464Z" fill="#00ABF7"/>
<path d="M73.801 39.1464C74.7968 39.1464 75.6038 38.3392 75.6038 37.3434C75.6038 36.3477 74.7968 35.5405 73.801 35.5405C72.8053 35.5405 71.998 36.3477 71.998 37.3434C71.998 38.3392 72.8053 39.1464 73.801 39.1464Z" fill="#00ABF7"/>
<path d="M109.341 39.1464C110.337 39.1464 111.144 38.3392 111.144 37.3434C111.144 36.3477 110.337 35.5405 109.341 35.5405C108.346 35.5405 107.539 36.3477 107.539 37.3434C107.539 38.3392 108.346 39.1464 109.341 39.1464Z" fill="#00ABF7"/>
<path d="M144.882 39.1464C145.878 39.1464 146.685 38.3392 146.685 37.3434C146.685 36.3477 145.878 35.5405 144.882 35.5405C143.886 35.5405 143.079 36.3477 143.079 37.3434C143.079 38.3392 143.886 39.1464 144.882 39.1464Z" fill="#00ABF7"/>
<path d="M4.52284 72.884C4.52284 73.8813 3.71716 74.6869 2.7198 74.6869C1.72244 74.6869 0.916992 73.8813 0.916992 72.884C0.916992 71.8866 1.72244 71.0811 2.7198 71.0811C3.71716 71.0811 4.52284 71.8866 4.52284 72.884Z" fill="#00ABF7"/>
<path d="M38.2604 74.6869C39.2562 74.6869 40.0632 73.8797 40.0632 72.884C40.0632 71.8883 39.2562 71.0811 38.2604 71.0811C37.2647 71.0811 36.4574 71.8883 36.4574 72.884C36.4574 73.8797 37.2647 74.6869 38.2604 74.6869Z" fill="#00ABF7"/>
<path d="M73.801 74.6869C74.7968 74.6869 75.6038 73.8797 75.6038 72.884C75.6038 71.8883 74.7968 71.0811 73.801 71.0811C72.8053 71.0811 71.998 71.8883 71.998 72.884C71.998 73.8797 72.8053 74.6869 73.801 74.6869Z" fill="#00ABF7"/>
<path d="M109.341 74.6869C110.337 74.6869 111.144 73.8797 111.144 72.884C111.144 71.8883 110.337 71.0811 109.341 71.0811C108.346 71.0811 107.539 71.8883 107.539 72.884C107.539 73.8797 108.346 74.6869 109.341 74.6869Z" fill="#00ABF7"/>
<path d="M144.882 74.6869C145.878 74.6869 146.685 73.8797 146.685 72.884C146.685 71.8883 145.878 71.0811 144.882 71.0811C143.886 71.0811 143.079 71.8883 143.079 72.884C143.079 73.8797 143.886 74.6869 144.882 74.6869Z" fill="#00ABF7"/>
<path d="M4.52284 108.424C4.52284 109.422 3.71716 110.227 2.7198 110.227C1.72244 110.227 0.916992 109.422 0.916992 108.424C0.916992 107.427 1.72244 106.622 2.7198 106.622C3.71716 106.622 4.52284 107.427 4.52284 108.424Z" fill="#00ABF7"/>
<path d="M40.0632 108.424C40.0632 109.422 39.2578 110.227 38.2604 110.227C37.2631 110.227 36.4574 109.422 36.4574 108.424C36.4574 107.427 37.2631 106.622 38.2604 106.622C39.2578 106.622 40.0632 107.427 40.0632 108.424Z" fill="#00ABF7"/>
<path d="M75.6038 108.424C75.6038 109.422 74.7984 110.227 73.801 110.227C72.8037 110.227 71.998 109.422 71.998 108.424C71.998 107.427 72.8037 106.622 73.801 106.622C74.7984 106.622 75.6038 107.427 75.6038 108.424Z" fill="#00ABF7"/>
<path d="M111.144 108.424C111.144 109.422 110.339 110.227 109.341 110.227C108.344 110.227 107.539 109.422 107.539 108.424C107.539 107.427 108.344 106.622 109.341 106.622C110.339 106.622 111.144 107.427 111.144 108.424Z" fill="#00ABF7"/>
<path d="M146.685 108.424C146.685 109.422 145.879 110.227 144.882 110.227C143.885 110.227 143.079 109.422 143.079 108.424C143.079 107.427 143.885 106.622 144.882 106.622C145.879 106.622 146.685 107.427 146.685 108.424Z" fill="#00ABF7"/>
<path d="M4.52284 143.965C4.52284 144.962 3.71716 145.768 2.7198 145.768C1.72244 145.768 0.916992 144.962 0.916992 143.965C0.916992 142.968 1.72244 142.162 2.7198 142.162C3.71716 142.162 4.52284 142.968 4.52284 143.965Z" fill="#00ABF7"/>
<path d="M40.0632 143.965C40.0632 144.962 39.2578 145.768 38.2604 145.768C37.2631 145.768 36.4574 144.962 36.4574 143.965C36.4574 142.968 37.2631 142.162 38.2604 142.162C39.2578 142.162 40.0632 142.968 40.0632 143.965Z" fill="#00ABF7"/>
<path d="M75.6038 143.965C75.6038 144.962 74.7984 145.768 73.801 145.768C72.8037 145.768 71.998 144.962 71.998 143.965C71.998 142.968 72.8037 142.162 73.801 142.162C74.7984 142.162 75.6038 142.968 75.6038 143.965Z" fill="#00ABF7"/>
<path d="M111.144 143.965C111.144 144.962 110.339 145.768 109.341 145.768C108.344 145.768 107.539 144.962 107.539 143.965C107.539 142.968 108.344 142.162 109.341 142.162C110.339 142.162 111.144 142.968 111.144 143.965Z" fill="#00ABF7"/>
<path d="M146.685 143.965C146.685 144.962 145.879 145.768 144.882 145.768C143.885 145.768 143.079 144.962 143.079 143.965C143.079 142.968 143.885 142.162 144.882 142.162C145.879 142.162 146.685 142.968 146.685 143.965Z" fill="#00ABF7"/>
<path d="M4.52284 179.506C4.52284 180.503 3.71716 181.308 2.7198 181.308C1.72244 181.308 0.916992 180.503 0.916992 179.506C0.916992 178.508 1.72244 177.703 2.7198 177.703C3.71716 177.703 4.52284 178.508 4.52284 179.506Z" fill="#00ABF7"/>
<path d="M40.0632 179.506C40.0632 180.503 39.2578 181.308 38.2604 181.308C37.2631 181.308 36.4574 180.503 36.4574 179.506C36.4574 178.508 37.2631 177.703 38.2604 177.703C39.2578 177.703 40.0632 178.508 40.0632 179.506Z" fill="#00ABF7"/>
<path d="M75.6038 179.506C75.6038 180.503 74.7984 181.308 73.801 181.308C72.8037 181.308 71.998 180.503 71.998 179.506C71.998 178.508 72.8037 177.703 73.801 177.703C74.7984 177.703 75.6038 178.508 75.6038 179.506Z" fill="#00ABF7"/>
<path d="M111.144 179.506C111.144 180.503 110.339 181.308 109.341 181.308C108.344 181.308 107.539 180.503 107.539 179.506C107.539 178.508 108.344 177.703 109.341 177.703C110.339 177.703 111.144 178.508 111.144 179.506Z" fill="#00ABF7"/>
<path d="M146.685 179.506C146.685 180.503 145.879 181.308 144.882 181.308C143.885 181.308 143.079 180.503 143.079 179.506C143.079 178.508 143.885 177.703 144.882 177.703C145.879 177.703 146.685 178.508 146.685 179.506Z" fill="#00ABF7"/>
<path d="M4.52284 215.046C4.52284 216.043 3.71716 216.849 2.7198 216.849C1.72244 216.849 0.916992 216.043 0.916992 215.046C0.916992 214.049 1.72244 213.243 2.7198 213.243C3.71716 213.243 4.52284 214.049 4.52284 215.046Z" fill="#00ABF7"/>
<path d="M38.2604 216.849C39.2562 216.849 40.0632 216.042 40.0632 215.046C40.0632 214.05 39.2562 213.243 38.2604 213.243C37.2647 213.243 36.4574 214.05 36.4574 215.046C36.4574 216.042 37.2647 216.849 38.2604 216.849Z" fill="#00ABF7"/>
<path d="M73.801 216.849C74.7968 216.849 75.6038 216.042 75.6038 215.046C75.6038 214.05 74.7968 213.243 73.801 213.243C72.8053 213.243 71.998 214.05 71.998 215.046C71.998 216.042 72.8053 216.849 73.801 216.849Z" fill="#00ABF7"/>
<path d="M109.341 216.849C110.337 216.849 111.144 216.042 111.144 215.046C111.144 214.05 110.337 213.243 109.341 213.243C108.346 213.243 107.539 214.05 107.539 215.046C107.539 216.042 108.346 216.849 109.341 216.849Z" fill="#00ABF7"/>
<path d="M144.882 216.849C145.878 216.849 146.685 216.042 146.685 215.046C146.685 214.05 145.878 213.243 144.882 213.243C143.886 213.243 143.079 214.05 143.079 215.046C143.079 216.042 143.886 216.849 144.882 216.849Z" fill="#00ABF7"/>
<path d="M4.52284 250.587C4.52284 251.584 3.71716 252.39 2.7198 252.39C1.72244 252.39 0.916992 251.584 0.916992 250.587C0.916992 249.589 1.72244 248.784 2.7198 248.784C3.71716 248.784 4.52284 249.589 4.52284 250.587Z" fill="#00ABF7"/>
<path d="M38.2604 252.39C39.2562 252.39 40.0632 251.582 40.0632 250.587C40.0632 249.591 39.2562 248.784 38.2604 248.784C37.2647 248.784 36.4574 249.591 36.4574 250.587C36.4574 251.582 37.2647 252.39 38.2604 252.39Z" fill="#00ABF7"/>
<path d="M73.801 252.39C74.7968 252.39 75.6038 251.582 75.6038 250.587C75.6038 249.591 74.7968 248.784 73.801 248.784C72.8053 248.784 71.998 249.591 71.998 250.587C71.998 251.582 72.8053 252.39 73.801 252.39Z" fill="#00ABF7"/>
<path d="M109.341 252.39C110.337 252.39 111.144 251.582 111.144 250.587C111.144 249.591 110.337 248.784 109.341 248.784C108.346 248.784 107.539 249.591 107.539 250.587C107.539 251.582 108.346 252.39 109.341 252.39Z" fill="#00ABF7"/>
<path d="M144.882 252.39C145.878 252.39 146.685 251.582 146.685 250.587C146.685 249.591 145.878 248.784 144.882 248.784C143.886 248.784 143.079 249.591 143.079 250.587C143.079 251.582 143.886 252.39 144.882 252.39Z" fill="#00ABF7"/>
</svg>
