<svg width="111" height="75" viewBox="0 0 111 75" fill="none" xmlns="http://www.w3.org/2000/svg">
<path d="M109.18 3.86415C108.183 3.86415 107.377 3.05859 107.377 2.06123C107.377 1.06387 108.183 0.258301 109.18 0.258301C110.177 0.258301 110.983 1.06387 110.983 2.06123C110.983 3.05859 110.177 3.86415 109.18 3.86415Z" fill="#00ABF7"/>
<path d="M109.18 39.4047C108.183 39.4047 107.377 38.5991 107.377 37.6018C107.377 36.6044 108.183 35.7988 109.18 35.7988C110.177 35.7988 110.983 36.6044 110.983 37.6018C110.983 38.5991 110.177 39.4047 109.18 39.4047Z" fill="#00ABF7"/>
<path d="M109.18 74.9452C108.183 74.9452 107.377 74.1396 107.377 73.1423C107.377 72.1449 108.183 71.3394 109.18 71.3394C110.177 71.3394 110.983 72.1449 110.983 73.1423C110.983 74.1396 110.177 74.9452 109.18 74.9452Z" fill="#00ABF7"/>
<path d="M73.6394 3.86415C74.6351 3.86415 75.4424 3.05695 75.4424 2.06123C75.4424 1.0655 74.6351 0.258301 73.6394 0.258301C72.6436 0.258301 71.8366 1.0655 71.8366 2.06123C71.8366 3.05695 72.6436 3.86415 73.6394 3.86415Z" fill="#00ABF7"/>
<path d="M73.6394 39.4047C74.6351 39.4047 75.4424 38.5975 75.4424 37.6018C75.4424 36.606 74.6351 35.7988 73.6394 35.7988C72.6436 35.7988 71.8366 36.606 71.8366 37.6018C71.8366 38.5975 72.6436 39.4047 73.6394 39.4047Z" fill="#00ABF7"/>
<path d="M73.6394 74.9452C74.6351 74.9452 75.4424 74.138 75.4424 73.1423C75.4424 72.1465 74.6351 71.3394 73.6394 71.3394C72.6436 71.3394 71.8366 72.1465 71.8366 73.1423C71.8366 74.138 72.6436 74.9452 73.6394 74.9452Z" fill="#00ABF7"/>
<path d="M38.0988 3.86415C37.1014 3.86415 36.296 3.05859 36.296 2.06123C36.296 1.06387 37.1014 0.258301 38.0988 0.258301C39.0961 0.258301 39.9018 1.06387 39.9018 2.06123C39.9018 3.05859 39.0961 3.86415 38.0988 3.86415Z" fill="#00ABF7"/>
<path d="M38.0988 39.4047C37.1014 39.4047 36.296 38.5991 36.296 37.6018C36.296 36.6044 37.1014 35.7988 38.0988 35.7988C39.0961 35.7988 39.9018 36.6044 39.9018 37.6018C39.9018 38.5991 39.0961 39.4047 38.0988 39.4047Z" fill="#00ABF7"/>
<path d="M38.0988 74.9452C37.1014 74.9452 36.296 74.1396 36.296 73.1423C36.296 72.1449 37.1014 71.3394 38.0988 71.3394C39.0961 71.3394 39.9018 72.1449 39.9018 73.1423C39.9018 74.1396 39.0961 74.9452 38.0988 74.9452Z" fill="#00ABF7"/>
<path d="M2.55841 3.86415C1.56105 3.86415 0.755371 3.05859 0.755371 2.06123C0.755371 1.06387 1.56105 0.258301 2.55841 0.258301C3.55577 0.258301 4.36122 1.06387 4.36122 2.06123C4.36122 3.05859 3.55577 3.86415 2.55841 3.86415Z" fill="#00ABF7"/>
<path d="M2.5584 39.4047C1.56104 39.4047 0.75536 38.5991 0.75536 37.6018C0.75536 36.6044 1.56104 35.7988 2.5584 35.7988C3.55576 35.7988 4.36121 36.6044 4.36121 37.6018C4.36121 38.5991 3.55576 39.4047 2.5584 39.4047Z" fill="#00ABF7"/>
<path d="M2.5584 74.9452C1.56104 74.9452 0.75536 74.1396 0.75536 73.1423C0.75536 72.1449 1.56104 71.3394 2.5584 71.3394C3.55576 71.3394 4.36121 72.1449 4.36121 73.1423C4.36121 74.1396 3.55576 74.9452 2.5584 74.9452Z" fill="#00ABF7"/>
</svg>
