<svg width="24" height="24" viewBox="0 0 24 24" fill="none" xmlns="http://www.w3.org/2000/svg">
<path fill-rule="evenodd" clip-rule="evenodd" d="M12 24C18.6274 24 24 18.6274 24 12C24 5.37258 18.6274 0 12 0C5.37258 0 0 5.37258 0 12C0 18.6274 5.37258 24 12 24ZM7.46119 16.7676C7.15257 16.4589 7.15257 15.9585 7.46119 15.6499L10.9972 12.1139L7.46124 8.5779C7.15261 8.26928 7.15261 7.7689 7.46124 7.46027C7.76986 7.15165 8.27024 7.15165 8.57887 7.46027L12.1149 10.9963L15.6509 7.46024C15.9595 7.15162 16.4599 7.15162 16.7685 7.46024C17.0771 7.76887 17.0771 8.26925 16.7685 8.57787L13.2325 12.1139L16.7685 15.65C17.0772 15.9586 17.0772 16.459 16.7685 16.7676C16.4599 17.0762 15.9595 17.0762 15.6509 16.7676L12.1149 13.2315L8.57882 16.7676C8.2702 17.0762 7.76982 17.0762 7.46119 16.7676Z" fill="#BBB9C0"/>
</svg>
