<svg width="30" height="30" viewBox="0 0 30 30" fill="none" xmlns="http://www.w3.org/2000/svg">
<path d="M14.6429 15.5357C15.136 15.5357 15.5357 15.136 15.5357 14.6429C15.5357 14.1497 15.136 13.75 14.6429 13.75C14.1497 13.75 13.75 14.1497 13.75 14.6429C13.75 15.136 14.1497 15.5357 14.6429 15.5357Z" stroke="black" stroke-width="1.78571" stroke-linecap="round" stroke-linejoin="round"/>
<path d="M6.78568 15.5357C7.27879 15.5357 7.67854 15.136 7.67854 14.6429C7.67854 14.1497 7.27879 13.75 6.78568 13.75C6.29257 13.75 5.89282 14.1497 5.89282 14.6429C5.89282 15.136 6.29257 15.5357 6.78568 15.5357Z" stroke="black" stroke-width="1.78571" stroke-linecap="round" stroke-linejoin="round"/>
<path d="M22.4999 15.5357C22.993 15.5357 23.3928 15.136 23.3928 14.6429C23.3928 14.1497 22.993 13.75 22.4999 13.75C22.0068 13.75 21.6071 14.1497 21.6071 14.6429C21.6071 15.136 22.0068 15.5357 22.4999 15.5357Z" stroke="black" stroke-width="1.78571" stroke-linecap="round" stroke-linejoin="round"/>
</svg>
